<svg id="Layer_1" data-name="Layer 1" xmlns="http://www.w3.org/2000/svg" viewBox="0 0 249.44 74.07"><defs><style>.cls-1{fill:#171717;}.cls-2{fill:#30475e;}</style></defs><title>Sattle Logo</title><path class="cls-1" d="M73.09,50.32l-14,14a4.62,4.62,0,0,1-6.51,0L41,52.68l-1.43,1.43a27.61,27.61,0,0,1-.78,24.38,2.12,2.12,0,0,1-3.36.4L19.84,63.34l-2.57,2.58A4.21,4.21,0,0,1,17.5,67a4.63,4.63,0,1,1-4.63-4.63h0a3.93,3.93,0,0,1,1.13.24l2.58-2.58L1,44.52a2.13,2.13,0,0,1,.41-3.36,27.54,27.54,0,0,1,24.38-.78L27.22,39,15.61,27.33a4.62,4.62,0,0,1,0-6.53l14-14a4.56,4.56,0,0,1,3.25-1.35,4.65,4.65,0,0,1,3.27,1.35L47.74,18.43l6.92-6.93a4.85,4.85,0,0,1,6.87,0l6.88,6.87a4.87,4.87,0,0,1,0,6.87l-6.92,6.93L73.11,43.81a4.6,4.6,0,0,1,0,6.5ZM32.14,34,42.82,23.35l-10-10L22.18,24.06Zm34.4,13-10-10L45.89,47.77l10,10Z" transform="translate(-0.38 -5.46)"/><path class="cls-1" d="M104.07,55a6.13,6.13,0,0,0-2.23-4.89Q99.62,48.22,94,46.7q-8-2.1-12.37-5.58A11.11,11.11,0,0,1,77.29,32a11.64,11.64,0,0,1,4.79-9.55q4.8-3.75,12.37-3.75,7.9,0,12.7,4.26a12.75,12.75,0,0,1,4.62,10.23l-.06.2H104a7.72,7.72,0,0,0-2.5-6q-2.5-2.3-7.15-2.29Q90,25.13,87.65,27A6,6,0,0,0,85.29,32a5.37,5.37,0,0,0,2.56,4.53,28,28,0,0,0,8.44,3.42Q104,42,108.05,45.65a12,12,0,0,1,4,9.32,11.26,11.26,0,0,1-4.79,9.54q-4.8,3.54-12.6,3.54a22.27,22.27,0,0,1-13.17-4A12.29,12.29,0,0,1,76,53.13l.07-.2h7.71a7.5,7.5,0,0,0,3,6.54,13.25,13.25,0,0,0,7.87,2.15,11.67,11.67,0,0,0,6.92-1.78A5.69,5.69,0,0,0,104.07,55Z" transform="translate(-0.38 -5.46)"/><path class="cls-2" d="M140.92,67.36c-.28-.9-.52-1.78-.7-2.64a17.52,17.52,0,0,1-.38-2.57,14.13,14.13,0,0,1-4.33,4.2,11.05,11.05,0,0,1-6,1.7c-3.71,0-6.55-1-8.54-2.87a10.39,10.39,0,0,1-3-7.87,9.29,9.29,0,0,1,4.08-8.05q4.08-2.88,11.5-2.89h6.22V43.25a5.81,5.81,0,0,0-1.65-4.39,6.52,6.52,0,0,0-4.71-1.58,6.63,6.63,0,0,0-4.34,1.32A4.18,4.18,0,0,0,127.45,42h-7.7l0-.19c-.15-2.81,1.11-5.31,3.77-7.48s6.15-3.26,10.43-3.26,7.5,1.05,10.05,3.16,3.82,5.14,3.82,9.09V59.15a28.92,28.92,0,0,0,.29,4.24,22.74,22.74,0,0,0,1,4Zm-9.81-5.74a10,10,0,0,0,5.45-1.51,7.64,7.64,0,0,0,3.21-3.46V51.38h-6.36A8,8,0,0,0,128,53.11a5.25,5.25,0,0,0-2,4.07,4.17,4.17,0,0,0,1.33,3.24A5.51,5.51,0,0,0,131.11,61.62Z" transform="translate(-0.38 -5.46)"/><path class="cls-1" d="M166.12,23.05v8.67h6.39v5.93h-6.39V57.34a4.3,4.3,0,0,0,1,3.15,3.47,3.47,0,0,0,2.53.94,6.88,6.88,0,0,0,1.29-.12,8.49,8.49,0,0,0,1.18-.31l.86,5.86a8.62,8.62,0,0,1-2.44.87,13.42,13.42,0,0,1-2.93.32,9.17,9.17,0,0,1-6.92-2.59c-1.66-1.72-2.5-4.43-2.5-8.12V37.65h-5.43V31.72h5.43V23.05Z" transform="translate(-0.38 -5.46)"/><path class="cls-1" d="M189.57,23.05v8.67H196v5.93h-6.39V57.34a4.3,4.3,0,0,0,1,3.15,3.48,3.48,0,0,0,2.53.94,6.88,6.88,0,0,0,1.29-.12,8.13,8.13,0,0,0,1.18-.31l.86,5.86a8.62,8.62,0,0,1-2.44.87,13.42,13.42,0,0,1-2.93.32,9.13,9.13,0,0,1-6.91-2.59q-2.51-2.58-2.51-8.12V37.65h-5.43V31.72h5.43V23.05Z" transform="translate(-0.38 -5.46)"/><path class="cls-1" d="M211.61,67.36h-8V16h8Z" transform="translate(-0.38 -5.46)"/><path class="cls-1" d="M235.85,68.05q-7.57,0-12.07-5t-4.5-12.73V49a18.88,18.88,0,0,1,4.47-12.89,14.09,14.09,0,0,1,11.18-5.09q7.22,0,11,4.36t3.84,11.71v4.71H227.58l-.06.17A11.16,11.16,0,0,0,230,58.93a7.87,7.87,0,0,0,6.35,2.69,17.06,17.06,0,0,0,5.53-.79,18,18,0,0,0,4.45-2.27l2.56,5.25a16.42,16.42,0,0,1-5.33,3A22.19,22.19,0,0,1,235.85,68.05Zm-.92-30.57a6,6,0,0,0-4.88,2.36,11.64,11.64,0,0,0-2.37,6l.07.17h14.13v-.82a8.55,8.55,0,0,0-1.73-5.54A6.29,6.29,0,0,0,234.93,37.48Z" transform="translate(-0.38 -5.46)"/></svg>