<svg id="Layer_1" data-name="Layer 1" xmlns="http://www.w3.org/2000/svg" viewBox="0 0 249.62 74.07"><defs><style>.cls-1,.cls-2{fill:#171717;}.cls-2{font-size:65.76px;font-family:Roboto-Medium, Roboto;font-weight:500;}.cls-3{fill:#30475e;}</style></defs><title>Sattle Logo</title><path class="cls-1" d="M73.09,50.32l-14,14a4.62,4.62,0,0,1-6.51,0L41,52.68l-1.43,1.43a27.61,27.61,0,0,1-.78,24.38,2.12,2.12,0,0,1-3.36.4L19.84,63.34l-2.57,2.58A4.21,4.21,0,0,1,17.5,67a4.63,4.63,0,1,1-4.63-4.63h0a3.93,3.93,0,0,1,1.13.24l2.58-2.58L1,44.52a2.13,2.13,0,0,1,.41-3.36,27.54,27.54,0,0,1,24.38-.78L27.22,39,15.61,27.33a4.62,4.62,0,0,1,0-6.53l14-14a4.56,4.56,0,0,1,3.25-1.35,4.65,4.65,0,0,1,3.27,1.35L47.74,18.43l6.92-6.93a4.85,4.85,0,0,1,6.87,0l6.88,6.87a4.87,4.87,0,0,1,0,6.87l-6.92,6.93L73.11,43.81a4.6,4.6,0,0,1,0,6.5ZM32.14,34,42.82,23.35l-10-10L22.18,24.06Zm34.4,13-10-10L45.89,47.77l10,10Z" transform="translate(-0.38 -5.46)"/><text class="cls-2" transform="translate(74.92 56.25)">S<tspan class="cls-3" x="41.35" y="0">a</tspan><tspan x="77.12" y="0">ttle</tspan></text></svg>